# File created by Blade
# Date/Time:  Thu Jan 22 19:29:39 2015
# Frame Rate: 120.000 fps
#------------------------------------------------------
:FULLY-SPECIFIED
:DEGREES
1437
root 2.047661 33.762346 1.182363 88.466791 -13.036161 -24.943979
RightUpLeg -6.674855 17.290440 -29.323448
RightLeg 151.256165 -0.000000 -0.000000
RightFoot 35.527769 5.569912 4.715031
RightToeBase -19.499757 -0.000000 0.000000
LeftUpLeg -92.426666 14.702412 6.895339
LeftLeg 31.732880 -0.000000 -0.000000
LeftFoot -24.836957 9.152099 -8.974954
LeftToeBase 5.326866 -0.000000 -0.000000
Spine -17.217786 -5.774371 -0.575992
RightShoulder -19.603710 -33.638678 -14.089396
RightArm 9.562780 -64.046510 60.900548
RightForeArm 36.566267 -0.000000 41.656209
RightHand -10.583826 -0.000000 13.009250
RightHandThumb1 -24.326973 -0.000000 -32.862282
LeftShoulder -35.474766 6.007884 34.460437
LeftArm 155.092384 -40.168582 -116.697054
LeftForeArm -12.965761 0.000000 59.902589
LeftHand -15.019250 -0.000000 12.293718
LeftHandThumb1 -26.253704 0.000000 33.147579
Head -23.151678 27.157361 -13.323828
1438
root 2.042271 33.760934 1.178786 88.410320 -13.022176 -24.937086
RightUpLeg -6.588054 17.322483 -29.315273
RightLeg 151.219257 -0.000000 -0.000000
RightFoot 35.478444 5.550899 4.733320
RightToeBase -19.321745 -0.000000 0.000000
LeftUpLeg -92.371818 14.688913 6.950875
LeftLeg 31.737679 -0.000000 -0.000000
LeftFoot -24.856310 9.190279 -8.978323
LeftToeBase 5.391049 -0.000000 -0.000000
Spine -17.033127 -5.770206 -0.628769
RightShoulder -19.824543 -33.479862 -13.876717
RightArm 9.502936 -64.069177 60.756275
RightForeArm 36.527054 -0.000000 41.720375
RightHand -10.578141 -0.000000 12.952491
RightHandThumb1 -24.326973 -0.000000 -32.862282
LeftShoulder -35.658930 5.873645 34.534898
LeftArm 154.998467 -40.097882 -116.636997
LeftForeArm -13.012597 -0.000000 59.908175
LeftHand -14.978184 0.000000 12.251735
LeftHandThumb1 -26.253704 0.000000 33.147579
Head -24.222562 27.018301 -13.239892
1439
root 2.038404 33.759136 1.176338 88.360139 -13.029589 -24.924511
RightUpLeg -6.507592 17.304407 -29.341129
RightLeg 151.182797 -0.000000 -0.000000
RightFoot 35.458439 5.489370 4.660460
RightToeBase -19.378634 -0.000000 0.000000
LeftUpLeg -92.310344 14.659543 7.008167
LeftLeg 31.732585 -0.000000 -0.000000
LeftFoot -24.871131 9.254184 -8.988258
LeftToeBase 5.378126 -0.000000 -0.000000
Spine -16.851811 -5.767326 -0.712743
RightShoulder -20.086807 -33.372162 -13.608997
RightArm 9.596973 -64.089829 60.450734
RightForeArm 36.532492 0.000000 41.787502
RightHand -10.509207 -0.000000 12.964139
RightHandThumb1 -24.326973 -0.000000 -32.862282
LeftShoulder -35.840467 5.713416 34.634349
LeftArm 154.880293 -40.012938 -116.563482
LeftForeArm -13.018446 -0.000000 59.920244
LeftHand -14.955435 -0.000000 12.187099
LeftHandThumb1 -26.253704 0.000000 33.147579
Head -25.367899 26.783522 -13.113507
1440
root 2.033455 33.757217 1.174932 88.324274 -13.032945 -24.910150
RightUpLeg -6.437870 17.307242 -29.365394
RightLeg 151.146757 -0.000000 -0.000000
RightFoot 35.465371 5.453055 4.699538
RightToeBase -19.400659 -0.000000 0.000000
LeftUpLeg -92.250457 14.628558 7.084477
LeftLeg 31.715458 -0.000000 -0.000000
LeftFoot -24.882679 9.357083 -8.967969
LeftToeBase 5.325477 -0.000000 -0.000000
Spine -16.705449 -5.783070 -0.797214
RightShoulder -20.294109 -33.247248 -13.360259
RightArm 9.606393 -64.097736 60.218147
RightForeArm 36.595802 -0.000000 41.850616
RightHand -10.470150 -0.000000 13.064971
RightHandThumb1 -24.326973 -0.000000 -32.862282
LeftShoulder -36.024319 5.592368 34.728388
LeftArm 154.794538 -39.921361 -116.494375
LeftForeArm -12.984333 -0.000000 59.919378
LeftHand -15.005975 0.000000 12.093889
LeftHandThumb1 -26.253704 0.000000 33.147579
Head -26.525563 26.533388 -12.912262
